<?xml version="1.0" encoding="utf-8"?>
<!-- Generator: Adobe Illustrator 22.0.0, SVG Export Plug-In . SVG Version: 6.00 Build 0)  -->
<svg version="1.1" id="Layer_1" xmlns="http://www.w3.org/2000/svg" xmlns:xlink="http://www.w3.org/1999/xlink" x="0px" y="0px"
	 viewBox="0 0 255.1 255.1" style="enable-background:new 0 0 255.1 255.1;" xml:space="preserve">
<g>
	<path d="M112.5,18l13.8-0.3l13.8-0.3c0.2,0,0.4,0.2,0.4,0.4c0,0.2-0.2,0.4-0.4,0.4l-13.4,0.3l0.8,34.1c0,0.2-0.2,0.4-0.4,0.4
		c-0.2,0-0.4-0.2-0.4-0.4l-0.8-34.1l-13.4,0.3c-0.2,0-0.4-0.2-0.4-0.4C112.1,18.2,112.3,18,112.5,18z"/>
	<path d="M145.5,54.1c-0.1,0.2-0.3,0.4-0.5,0.3c-0.2-0.1-0.3-0.3-0.3-0.5l10.7-32.9c0.1-0.2,0.4-0.3,0.5-0.3l8.3,2.7
		c4.8,1.6,7.3,6.7,5.7,11.4c-1.6,4.8-6.7,7.4-11.4,5.8l-0.2-0.1l2.8,18.4c0,0.2-0.1,0.5-0.4,0.5c-0.2,0-0.5-0.1-0.5-0.4l-2.9-18.9
		l-6.7-2.2L145.5,54.1z M158.7,39.8c4.3,1.4,8.9-0.9,10.3-5.3c1.4-4.3-0.9-8.9-5.2-10.3l-7.9-2.6l-5.1,15.6L158.7,39.8z"/>
	<path d="M184.1,75.4c1.2-3.5,2.5-7.5,3.8-11.5l-12.1-9.3l-10.1,6.7c-0.2,0.1-0.5,0.1-0.6-0.1s-0.1-0.5,0.1-0.6l30.6-20.1
		c0.2-0.1,0.4-0.1,0.5,0c0,0,0,0,0,0c0.1,0.1,0.2,0.2,0.2,0.3c0,0.1,0,0.2-0.1,0.3c0,0,0,0,0,0c0,0.1-3.8,11.5-7.5,22.8c0,0,0,0,0,0
		c-1.4,4.1-2.7,8.2-3.9,11.8c-0.1,0.2-0.3,0.3-0.5,0.3C184.1,75.9,184,75.6,184.1,75.4z M188.2,63c3-9.1,6-18,7-21.2l-18.7,12.2
		L188.2,63z"/>
	<path d="M215.9,59.3L194,87.6l35.1-6.9c0.2,0,0.5,0.1,0.5,0.3c0,0.2-0.1,0.5-0.3,0.5L193,88.6c-0.8,0.2-0.4-0.7-0.4-0.7l22.6-29.2
		c0.1-0.2,0.4-0.2,0.6-0.1C216,58.8,216,59.1,215.9,59.3z"/>
	<path d="M204.9,124.8c3.2-1.9,6.8-4,10.5-6.1l-2.9-15l-12-1.7c-0.2,0-0.4-0.3-0.4-0.5c0-0.2,0.3-0.4,0.5-0.4l36.2,5.2
		c0.2,0,0.3,0.2,0.4,0.3c0,0,0,0,0,0c0,0.1,0,0.2-0.1,0.3c-0.1,0.1-0.2,0.2-0.3,0.2c0,0,0,0,0,0c-0.1,0.1-10.4,6.1-20.7,12.1
		c0,0,0,0,0,0c-3.8,2.2-7.5,4.4-10.7,6.3c-0.2,0.1-0.5,0-0.6-0.2C204.6,125.2,204.7,124.9,204.9,124.8z M216.1,118.2
		c8.3-4.8,16.4-9.5,19.3-11.2l-22.1-3.2L216.1,118.2z"/>
	<path d="M238.5,134.8l-34.5-2.1c-0.2,0-0.4-0.2-0.4-0.5c0-0.2,0.2-0.4,0.5-0.4l34.5,2.1c0.2,0,0.4,0.2,0.4,0.5
		C238.9,134.6,238.7,134.8,238.5,134.8z"/>
	<path d="M235.8,153.8l-32.5-10.6l-6.3,19.3c-0.1,0.2-0.3,0.4-0.5,0.3c-0.2-0.1-0.3-0.3-0.3-0.5l6.4-19.7c0.1-0.2,0.3-0.4,0.5-0.3
		l32.9,10.7c0.2,0.1,0.3,0.3,0.3,0.5C236.3,153.7,236.1,153.8,235.8,153.8z"/>
	<path d="M169.1,207.3c-0.2,0.1-0.5,0.1-0.6-0.1c-0.1-0.1-0.1-0.2-0.1-0.3c0-0.1,0.5-3.2,1-6.5l-6.5-0.8c-0.2,0-0.4-0.3-0.4-0.5
		c0-0.2,0.3-0.4,0.5-0.4l6.5,0.8c0.6-3.5,1.1-6.9,1.5-7.7c0.4-2.2,1.6-3.7,3.5-5.1c4-2.9,9.6-1.9,12.5,2.1c1.4,2,2.1,4.7,1.3,7.4
		l-1.8,5.5l4.4,0.6c2,0.3,4.6,1.3,5.9,3c2.4,3.3,1.6,8-1.7,10.4c-3.4,2.4-8,1.6-10.4-1.7c-1.2-1.7-1.6-4.6-0.9-6.6l1.6-4.9l-15.2-2
		C169.8,203.8,169.6,207,169.1,207.3z M187.6,196c0.8-2.4,0.1-4.8-1.2-6.6c-2.6-3.6-7.6-4.5-11.3-1.9c-1.9,1.3-2.8,2.6-3.2,4.7
		c0,0.1,0,0.1-0.1,0.2c-0.2,0.4-0.9,4-1.5,7.4l15.3,2L187.6,196z M184.6,207.6c-0.6,1.7-0.2,4.4,0.8,5.8c2.1,2.9,6.2,3.7,9.2,1.5
		c3-2.1,3.6-6.2,1.5-9.2c-1-1.4-3.4-2.4-5.3-2.7l-4.5-0.6L184.6,207.6z"/>
	<path d="M136,202.8c0-0.2,0.2-0.4,0.4-0.4c0.2,0,0.4,0.2,0.4,0.4l-0.8,34.5c0,0.2-0.2,0.4-0.4,0.4l-10.4-0.2
		c-6-0.2-10.6-5.1-10.5-11c0.1-6,5.1-10.7,11-10.5l9.8,0.2L136,202.8z M125.9,216.8c-5.5-0.1-10,4.2-10.2,9.7
		c-0.1,5.5,4.1,10,9.6,10.2l9.9,0.2l0.5-19.9L125.9,216.8z"/>
	<path d="M103.8,218.1c-4.4,8.8-15,12.3-23.8,8s-12.3-15-8-23.8c4.4-8.8,15-12.3,23.8-8C104.6,198.7,108.1,209.3,103.8,218.1z
		 M72.8,202.7c-4.1,8.3-0.8,18.4,7.6,22.6s18.4,0.8,22.6-7.6c4.2-8.3,0.8-18.4-7.6-22.6C87.1,191,77,194.4,72.8,202.7z"/>
	<path d="M37.3,187.5L48.9,202l12.8-10.2L52.3,180c-0.1-0.2-0.1-0.5,0.1-0.6c0.2-0.1,0.5-0.1,0.6,0.1l9.4,11.8L75.2,181l-11.6-14.5
		c-0.1-0.2-0.1-0.5,0.1-0.6s0.5-0.1,0.6,0.1l11.9,14.9c0.1,0.1,0.1,0.4-0.1,0.6l-13.5,10.8L49.1,203c-0.1,0.1-0.4,0.1-0.6-0.1
		L36.6,188c-0.1-0.2-0.1-0.5,0.1-0.6C36.8,187.3,37.1,187.3,37.3,187.5z"/>
	<path d="M27.7,171.6l-6.4-19.7c0,0,0-0.1,0-0.1c0,0,0-0.1,0-0.1c0-0.1,0.1-0.1,0.1-0.2c0-0.1,0.1-0.1,0.2-0.1c0,0,0.1,0,0.1,0
		c0,0,0.1,0,0.1,0l38.6,8.8l-6.2-19c-0.1-0.2,0.1-0.5,0.3-0.5c0.2-0.1,0.5,0.1,0.5,0.3l6.4,19.7c0.3,0.8-0.5,0.6-0.5,0.6l-38.6-8.8
		l6.2,19c0.1,0.2-0.1,0.5-0.3,0.5C28.1,171.9,27.8,171.8,27.7,171.6z"/>
	<path d="M16.6,129.6L16.6,129.6c0.3,0,0.5,0.2,0.5,0.4c0,0.2-0.2,0.4-0.4,0.5l0,0c-0.2,0-0.4-0.2-0.5-0.4
		C16.2,129.8,16.4,129.6,16.6,129.6z M16.9,136.2L16.9,136.2c0.3,0,0.5,0.2,0.5,0.4c0,0.2-0.2,0.4-0.4,0.5l0,0
		c-0.2,0-0.4-0.2-0.5-0.4C16.5,136.4,16.7,136.2,16.9,136.2z M19.6,132.3l34.5-1.7c0.2,0,0.4,0.2,0.5,0.4c0,0.2-0.2,0.4-0.4,0.5
		l-34.5,1.7c-0.2,0-0.4-0.2-0.5-0.4C19.2,132.5,19.4,132.3,19.6,132.3z"/>
	<path d="M24.3,95.5l-3.7,18.2l16.1,3.3l3-14.8c0-0.2,0.3-0.4,0.5-0.3c0.2,0,0.4,0.3,0.3,0.5l-3,14.8l16.1,3.3l3.7-18.2
		c0-0.2,0.3-0.4,0.5-0.3c0.2,0,0.4,0.3,0.3,0.5L54.4,121c0,0.2-0.3,0.4-0.5,0.3l-16.9-3.4L20,114.5c-0.2,0-0.4-0.3-0.3-0.5l3.8-18.6
		c0-0.2,0.3-0.4,0.5-0.3C24.2,95.1,24.3,95.3,24.3,95.5z"/>
	<path d="M80.1,53.2c0.2-0.2,0.5-0.1,0.6,0c0.1,0.1,0.1,0.2,0.1,0.3c0,0.1-0.1,3.2-0.2,6.5l6.5,0.1c0.2,0,0.4,0.2,0.4,0.4
		c0,0.2-0.2,0.4-0.4,0.4l-6.6-0.1c-0.2,3.5-0.3,7-0.6,7.8c-0.2,2.2-1.1,3.9-2.9,5.5c-3.7,3.3-9.3,3-12.7-0.7
		c-1.6-1.8-2.7-4.4-2.1-7.2l1.2-5.6l-4.4,0c-2.1,0-4.8-0.7-6.2-2.3c-2.7-3-2.5-7.7,0.5-10.5c3.1-2.8,7.8-2.5,10.5,0.5
		c1.4,1.6,2.1,4.4,1.7,6.5l-1.1,5L79.7,60C79.9,56.7,79.7,53.5,80.1,53.2z M64.7,54.7c0.4-1.8-0.3-4.4-1.5-5.7
		c-2.4-2.7-6.6-2.9-9.3-0.5c-2.7,2.4-2.9,6.6-0.5,9.3c1.2,1.3,3.7,2,5.6,2l4.6,0.1L64.7,54.7z M63.1,66.5C62.6,69,63.5,71.4,65,73
		c3,3.3,8.1,3.6,11.4,0.6c1.7-1.5,2.5-3,2.6-5c0-0.1,0-0.1,0-0.2c0.2-0.4,0.4-4,0.6-7.5l-15.4-0.2L63.1,66.5z"/>
</g>
</svg>
